<svg xmlns="http://www.w3.org/2000/svg" fill="none" viewBox="20.81 20.78 127.12 24.88"><path fill="#2b7eff" fill-rule="evenodd" d="M38.531 32.758a13.66 13.66 0 0 0-1.343 8.627l-2.442 1.422a1 1 0 0 0-.073-.153 1.16 1.16 0 0 0-1.59-.444 1.182 1.182 0 0 0-.319 1.752l-2.453 1.429a13.37 13.37 0 0 0-8.076-3.14l-1.422-21.47zm-11.207-1.955-2.443-4.268 9.882 6.87c-.828 1.643-1.107 3.57-.76 5.464l-4.259 2.48c-1.453-1.25-3.246-1.969-5.071-2.067l-.956-12.07 2.443 4.27a2.39 2.39 0 0 0 .388 3.594l.804 3.818 5.77-3.361-2.929-2.791a2.4 2.4 0 0 0-.287-.816 2.345 2.345 0 0 0-2.582-1.123m3.617 4.434-2.712 1.58-.55-2.614a1.1 1.1 0 0 1-.76-.537 1.114 1.114 0 0 1 .401-1.513 1.095 1.095 0 0 1 1.602.645c.052.177.058.361.023.537z" clip-rule="evenodd"/><path fill="#2b7eff" d="M53.931 34.019q.105.053.175.105.07.035.07.122 0 .035-.035.14a7.7 7.7 0 0 1-.77 1.4 6.6 6.6 0 0 1-1.19 1.313 5.4 5.4 0 0 1-1.68.98q-.962.367-2.222.367-2.1 0-3.553-.875a5.7 5.7 0 0 1-2.205-2.38q-.752-1.522-.752-3.395 0-.875.192-1.82a8 8 0 0 1 .63-1.872 5.7 5.7 0 0 1 1.173-1.628q.752-.735 1.855-1.155 1.102-.437 2.607-.437 1.26 0 2.17.315t1.523.805q.612.472.98.997.367.525.525.98.157.455.157.683 0 .245-.297.35l-2.135.752a.9.9 0 0 1-.315.07q-.21 0-.21-.175 0-.034.017-.262t.018-.315q0-.63-.228-1.278a2.34 2.34 0 0 0-.787-1.085q-.56-.455-1.558-.455-.944 0-1.592.455-.63.455-1.015 1.19a6 6 0 0 0-.56 1.558 8.3 8.3 0 0 0-.158 1.557q0 1.698.403 2.993.402 1.277 1.242 2.012.858.718 2.153.718t2.117-.455q.84-.456 1.33-1.103.508-.665.788-1.295.105-.227.297-.227.088 0 .228.07zm5.88 3.15q.263 0 .263.262v.525q0 .263-.297.263h-4.953q-.297 0-.297-.263v-.525q0-.262.262-.262h.035q.648 0 .945-.473.315-.49.315-1.19v-6.562a6 6 0 0 0-.07-.928 1.6 1.6 0 0 0-.262-.735q-.21-.315-.7-.367-.21-.018-.21-.228v-.595q0-.104.07-.14.069-.035.192-.087 1.243-.456 1.978-.84a10 10 0 0 0 1.242-.77q.035-.035.07-.035h.053q.035 0 .035.035v11.235q0 .7.315 1.19.314.49.962.49zm3.172-2.083q.299.735.945 1.313.666.577 1.68.577.561 0 1.173-.315t1.067-.98q.053-.087.14-.087t.175.052q.105.052.525.298.07.052.07.14a.6.6 0 0 1-.105.297 4.2 4.2 0 0 1-1.33 1.488q-.84.577-2.187.577-1.453 0-2.503-.647a4.5 4.5 0 0 1-1.627-1.715 4.9 4.9 0 0 1-.56-2.328q0-1.207.35-2.065.368-.875.962-1.4.595-.542 1.33-.787a4.6 4.6 0 0 1 1.523-.263q.875 0 1.54.35.665.333 1.12.858.472.525.7 1.12.245.577.245 1.085 0 .14-.158.21zm2.608-2.502q0-.84-.403-1.383-.402-.542-1.015-.542-.717 0-1.137.577-.42.56-.42 1.418 0 .262.017.647.036.385.14.7zm12.322 2.397q0 .63.192 1.138.194.49.84.577.21.018.21.228v.577q0 .246-.262.245-.858 0-1.435.105-.56.088-.98.245-.403.141-.805.315a.3.3 0 0 1-.123.035h-.052q-.035 0-.035-.07t.035-.332q.035-.28.07-.613l.087-.595q-.087.228-.385.613-.279.385-.84.7-.542.297-1.435.297a3.8 3.8 0 0 1-2.537-1.032q-.595-.543-.98-1.418-.368-.892-.368-2.17 0-1.627.578-2.625.595-1.014 1.522-1.487a4.4 4.4 0 0 1 1.995-.473q.858 0 1.575.263.718.263 1.26.752.456-.192.77-.35a4 4 0 0 0 .735-.49q.105-.07.228-.14a.17.17 0 0 1 .087-.035h.018q.035 0 .035.035zm-2.45-2.747a2.6 2.6 0 0 0-.263-.77 1.8 1.8 0 0 0-.595-.735q-.402-.315-1.085-.315-.84 0-1.312.42a2.15 2.15 0 0 0-.665 1.05 5.3 5.3 0 0 0-.175 1.382q0 1.68.665 2.66.682.98 1.75.98.63 0 .98-.262.368-.28.525-.56t.175-.333zm8.205-.928q.472-1.014 1.313-1.54.84-.525 1.767-.525.822 0 1.4.455.578.456.578 1.348 0 .384-.07.682t-.386.438l-1.644.665a.6.6 0 0 1-.158.035q-.157 0-.157-.158 0-.052.034-.157.105-.245.123-.473.035-.227.035-.402 0-.473-.245-.683a.78.78 0 0 0-.578-.227q-.402 0-.752.245a2.7 2.7 0 0 0-.612.595q-.263.35-.386.682v3.22q0 .7.316 1.19.314.473.962.473h.035q.263 0 .263.262v.525q0 .263-.263.263H80.15q-.262 0-.262-.263v-.525q0-.262.262-.262h.035q.648 0 .963-.473.315-.49.315-1.19v-2.205a6 6 0 0 0-.07-.91 1.6 1.6 0 0 0-.263-.735q-.21-.315-.7-.367-.21-.018-.21-.228v-.595q0-.174.263-.227 1.243-.193 2.17-.613.945-.42 1.277-.665a.17.17 0 0 1 .088-.035h.035q.035 0 .035.035 0 .018-.052.263a17 17 0 0 1-.106.63q-.052.367-.14.77z"/><path stroke="#40566d" stroke-linejoin="round" stroke-width="1.641" d="M55.522 42.595c3.157-.662 14.652-1.948 24.062 0-4.885 0-11.25.197-15.347 2.249"/><path fill="#40566d" d="M104.244 34.019q.105.053.175.105.07.035.07.122 0 .035-.035.14a7.7 7.7 0 0 1-.77 1.4 6.6 6.6 0 0 1-1.19 1.313 5.4 5.4 0 0 1-1.68.98q-.963.367-2.223.367-2.1 0-3.552-.875a5.7 5.7 0 0 1-2.205-2.38q-.753-1.522-.753-3.395 0-.875.193-1.82a8 8 0 0 1 .63-1.872 5.7 5.7 0 0 1 1.172-1.628q.753-.735 1.855-1.155 1.102-.437 2.608-.437 1.26 0 2.17.315t1.522.805q.613.472.98.997.368.525.525.98t.158.683q0 .245-.298.35l-2.135.752a.9.9 0 0 1-.315.07q-.21 0-.21-.175 0-.034.018-.262a5 5 0 0 0 .017-.315q0-.63-.227-1.278a2.34 2.34 0 0 0-.788-1.085q-.56-.455-1.557-.455-.945 0-1.593.455-.63.455-1.015 1.19a6 6 0 0 0-.56 1.558 8.3 8.3 0 0 0-.157 1.557q0 1.698.402 2.993.403 1.277 1.243 2.012.857.718 2.152.718t2.118-.455q.84-.456 1.33-1.103.507-.665.787-1.295.105-.227.298-.227.087 0 .227.07zm10.448.665q0 .454.052.91.07.437.28.752.228.298.7.35.14.018.158.088a.25.25 0 0 1 .035.14v.577q0 .246-.245.245a8 8 0 0 0-1.435.105q-.56.088-.98.245-.403.141-.805.315a.3.3 0 0 1-.14.035h-.035q-.035 0-.035-.052t.052-.525q.07-.49.228-1.68a5.4 5.4 0 0 1-.683 1.015q-.438.525-1.067.892-.613.35-1.418.35-.945 0-1.54-.28a2.3 2.3 0 0 1-.892-.77 3.2 3.2 0 0 1-.438-1.085 7.3 7.3 0 0 1-.105-1.242V32.18q0-.717-.332-1.19-.315-.472-.963-.472h-.07q-.262 0-.262-.263v-.525q0-.262.262-.262h3.553q.262 0 .262.262v5.443q0 .472.088.875a1.2 1.2 0 0 0 .35.63q.279.227.822.227.438 0 .875-.21.438-.227.77-.56.35-.35.49-.717V32.18q0-.717-.332-1.19-.315-.472-.945-.472h-.035q-.263 0-.263-.263v-.525q0-.262.263-.262h3.517q.263 0 .263.262zm8.026 2.275q.053.07.053.157 0 .105-.14.193l-.525.332a7 7 0 0 1-1.138.56 3.8 3.8 0 0 1-1.33.245q-.525 0-.997-.245-.456-.244-.735-.822-.28-.596-.28-1.628v-3.237q0-.472-.053-.928a1.3 1.3 0 0 0-.332-.77q-.263-.297-.893-.297-.262 0-.262-.263v-.525q0-.262.262-.262h1.278v-1.173q0-.227.157-.315.385-.21 1.015-.577.63-.386 1.12-.875a.12.12 0 0 1 .088-.035h.035q.035 0 .035.052v2.923h2.345q.262 0 .262.262v.753q0 .262-.262.262h-2.345v5.005q0 .683.21.945.21.245.525.245.297 0 .63-.157a10 10 0 0 0 .612-.35.4.4 0 0 1 .193-.07q.105 0 .192.14zm5.011-7.718a4.2 4.2 0 0 1 1.838.403 4.35 4.35 0 0 1 1.47 1.067q.612.665.945 1.505.35.823.35 1.715 0 1.296-.613 2.328a4.6 4.6 0 0 1-1.61 1.61 4.26 4.26 0 0 1-2.17.577 4.35 4.35 0 0 1-1.837-.385 4.9 4.9 0 0 1-1.47-1.032 5.1 5.1 0 0 1-.963-1.505 4.9 4.9 0 0 1-.332-1.785q0-1.278.595-2.293a4.5 4.5 0 0 1 1.592-1.61 4.2 4.2 0 0 1 2.205-.595m.753 7.788q.332 0 .735-.175t.7-.613q.315-.437.315-1.207 0-.613-.245-1.348a6 6 0 0 0-.648-1.435 3.9 3.9 0 0 0-.962-1.137q-.543-.456-1.19-.455-.718 0-1.243.542-.525.525-.525 1.453 0 .595.228 1.347.245.753.647 1.453.42.683.98 1.137.56.438 1.208.438m6.115-7.7q0-.788.192-1.663.193-.893.63-1.662.456-.788 1.208-1.278.77-.507 1.925-.507 1.4 0 2.065.542.682.525.682 1.313 0 .455-.175.875a.55.55 0 0 1-.157.21.5.5 0 0 1-.28.122q-.315.07-.753.175-.42.088-.77.158-.332.07-.385.07-.105 0-.105-.158 0-.087.053-.192.333-.666.332-1.155 0-.49-.262-.735a.75.75 0 0 0-.56-.263q-.42 0-.735.385-.332.386-.455 1.068-.105.682-.105 1.68v1.155h4.287v-.14q0-.788.193-1.663.192-.893.63-1.662.455-.788 1.207-1.278.77-.507 1.925-.507 1.4 0 2.065.542.683.525.683 1.313 0 .455-.175.875a.56.56 0 0 1-.158.21.5.5 0 0 1-.28.122q-.315.07-.752.175-.42.088-.77.158-.333.07-.385.07-.105 0-.105-.158 0-.087.052-.192.333-.666.333-1.155 0-.49-.263-.735a.75.75 0 0 0-.56-.263q-.42 0-.735.385-.332.386-.455 1.068-.105.682-.105 1.68v1.155h2.345q.263 0 .263.262v.753q0 .262-.263.262h-2.345v4.76q0 .7.315 1.19.333.473.98.473.263 0 .263.262v.525q0 .263-.263.263h-4.935q-.262 0-.262-.263v-.525q0-.262.262-.262.648 0 .963-.473.315-.49.315-1.19v-2.992q0-1.103-.455-1.435-.437-.333-1.523-.333h-2.292v4.76q0 .7.315 1.19.332.473.98.473.262 0 .262.262v.525q0 .263-.262.263h-4.935q-.263 0-.263-.263v-.525q0-.262.263-.262.648 0 .962-.473.315-.49.315-1.19v-2.992q0-.472-.052-.928a1.3 1.3 0 0 0-.333-.77q-.262-.297-.892-.297-.263 0-.263-.263v-.525q0-.262.263-.262h1.295z"/></svg>